# xmcd
#
# Track frame offsets:
# 150
# 15715
# 28761
# 39679
# 53942
# 72319
# 86168
# 103433
# 117033
# 127646
# 146300
# 157989
# 169478
# 186375
# 207170
#
# Disc length: 3065 seconds
#
#
# Revision: 1
# Processed by: cddbd v1.5.2PL0 Copyright (c) Steve Scherf et al.
# Submitted via: FreeRIP 2.951 
#
DISCID=d40bf70f
DTITLE=Waylon and Willie - Chartbuster Karaoke
DYEAR=1900
DGENRE=Karaoke
TTITLE0=Waylon Jennings - Good Hearted Woman, A
TTITLE1=Waylon Jennings - Are You Sure Hank Done It This Way
TTITLE2=Waylon Jennings - Good Ol' Boys
TTITLE3=Waylon Jennings - I'm A Ramblin' Man
TTITLE4=Waylon Jennings - I've Always Been Crazy
TTITLE5=Waylon Jennings  - Lovin' Her Was Easier
TTITLE6=Waylon Jennings  - Luckenbach, Texas
TTITLE7=Waylon Jennings - Mamas Don't Let Your Babies Grow Up To
TTITLE8=Waylon Jennings - Wurlitzer Prize, The
TTITLE9=Willie Nelson/ Always On My Mind
TTITLE10=Willie Nelson/ Blue Eyes Crying In The Rain
TTITLE11=Willie Nelson - On The Road Again
TTITLE12=Willie Nelson - Whiskey River
TTITLE13=Willie Nelson - Angel Flying Too Close To The Ground
TTITLE14=Willie Nelson/ City Of New Orleans
EXTD=
EXTT0=
EXTT1=
EXTT2=
EXTT3=
EXTT4=
EXTT5=
EXTT6=
EXTT7=
EXTT8=
EXTT9=
EXTT10=
EXTT11=
EXTT12=
EXTT13=
EXTT14=
PLAYORDER=
